HIERARCHY
ROOT Hips
{
	OFFSET 0.000000 0.000000 0.000000
	CHANNELS 6 Xposition Yposition Zposition Xrotation Yrotation Zrotation
	JOINT Spine1
	{
		OFFSET 0.000000 -0.000001 5.553894
		CHANNELS 6 Xposition Yposition Zposition Xrotation Yrotation Zrotation
		JOINT Neck
		{
			OFFSET 0.000000 -0.000001 4.427760
			CHANNELS 6 Xposition Yposition Zposition Xrotation Yrotation Zrotation
			JOINT Head
			{
				OFFSET 0.000000 -0.363272 2.815360
				CHANNELS 6 Xposition Yposition Zposition Xrotation Yrotation Zrotation
				End Site
				{
					OFFSET 0.000000 -0.000001 3.632711
				}
			}
		}
		JOINT LeftShoulder
		{
			OFFSET 0.731534 0.096024 3.575179
			CHANNELS 6 Xposition Yposition Zposition Xrotation Yrotation Zrotation
			JOINT LeftArm
			{
				OFFSET 2.610320 0.000000 0.000000
				CHANNELS 6 Xposition Yposition Zposition Xrotation Yrotation Zrotation
				JOINT LeftForeArm
				{
					OFFSET 5.118420 0.000000 0.000000
					CHANNELS 6 Xposition Yposition Zposition Xrotation Yrotation Zrotation
					JOINT LeftHand
					{
						OFFSET 4.756899 0.000000 0.000000
						CHANNELS 6 Xposition Yposition Zposition Xrotation Yrotation Zrotation
						End Site
						{
							OFFSET 2.724534 0.000000 0.000000
						}
					}
				}
			}
		}
		JOINT RightShoulder
		{
			OFFSET -0.721442 0.096024 3.575179
			CHANNELS 6 Xposition Yposition Zposition Xrotation Yrotation Zrotation
			JOINT RightArm
			{
				OFFSET -2.610320 0.000000 0.000000
				CHANNELS 6 Xposition Yposition Zposition Xrotation Yrotation Zrotation
				JOINT RightForeArm
				{
					OFFSET -5.118420 0.000000 0.000000
					CHANNELS 6 Xposition Yposition Zposition Xrotation Yrotation Zrotation
					JOINT RightHand
					{
						OFFSET -4.756900 0.000000 0.000000
						CHANNELS 6 Xposition Yposition Zposition Xrotation Yrotation Zrotation
						End Site
						{
							OFFSET -2.724534 0.000000 0.000000
						}
					}
				}
			}
		}
	}
	JOINT LeftUpLeg
	{
		OFFSET 1.816360 0.000000 0.000000
		CHANNELS 6 Xposition Yposition Zposition Xrotation Yrotation Zrotation
		JOINT LeftLeg
		{
			OFFSET 0.000000 0.000001 -7.638980
			CHANNELS 6 Xposition Yposition Zposition Xrotation Yrotation Zrotation
			JOINT LeftFoot
			{
				OFFSET 0.000000 0.000001 -8.008600
				CHANNELS 6 Xposition Yposition Zposition Xrotation Yrotation Zrotation
				JOINT LeftToeBase
				{
					OFFSET 0.000000 -2.724540 -1.180634
					CHANNELS 6 Xposition Yposition Zposition Xrotation Yrotation Zrotation
					End Site
					{
						OFFSET 0.000000 -0.726542 0.000000
					}
				}
			}
		}
	}
	JOINT RightUpLeg
	{
		OFFSET -1.816360 0.000000 0.000000
		CHANNELS 6 Xposition Yposition Zposition Xrotation Yrotation Zrotation
		JOINT RightLeg
		{
			OFFSET 0.000000 0.000001 -7.638980
			CHANNELS 6 Xposition Yposition Zposition Xrotation Yrotation Zrotation
			JOINT RightFoot
			{
				OFFSET 0.000000 0.000001 -8.008600
				CHANNELS 6 Xposition Yposition Zposition Xrotation Yrotation Zrotation
				JOINT RightToeBase
				{
					OFFSET 0.000000 -2.724540 -1.180634
					CHANNELS 6 Xposition Yposition Zposition Xrotation Yrotation Zrotation
					End Site
					{
						OFFSET 0.000000 -0.726542 0.000000
					}
				}
			}
		}
	}
}
MOTION
Frames: 6
Frame Time: 0.041667
-0.673611 -0.372076 14.927923 17.814267 -2.202623 0.478520 -0.000000 -0.000000 5.553895 -20.353139 -7.222052 -4.039473 0.000000 -0.000001 4.427762 13.428784 2.781958 1.246163 0.000000 -0.363272 2.815358 5.111449 5.875803 1.748746 0.731534 0.096024 3.575177 -7.931579 -18.398035 0.740037 2.610321 -0.000001 -0.000002 -9.615681 6.286627 -11.625601 5.118421 0.000000 0.000002 -4.564673 3.002127 2.123814 4.756898 -0.000001 0.000002 -3.913695 -3.692638 18.307514 -0.721442 0.096024 3.575180 0.104038 14.487355 -4.795684 -2.610320 -0.000000 0.000000 27.990537 -16.804118 24.269692 -5.118419 -0.000001 -0.000000 -38.771999 37.208473 105.085158 -4.756900 0.000001 -0.000001 10.762400 31.012819 -7.561495 1.816360 0.000001 0.000002 -33.334079 -24.479487 14.808596 0.000000 0.000002 -7.638980 32.260821 11.795344 12.695063 0.000000 0.000001 -8.008601 1.261334 7.113650 17.551505 -0.000000 -2.724539 -1.180634 -0.000002 -0.000001 -0.000002 -1.816360 0.000000 0.000000 -33.280254 30.198011 13.745055 0.000001 0.000002 -7.638980 23.973319 -25.001395 -19.439745 0.000000 0.000001 -8.008599 -9.238893 -9.015284 -26.967696 0.000000 -2.724541 -1.180634 0.000000 -0.000001 0.000001 
-0.673369 -0.376156 14.929134 17.779624 -2.174929 0.520697 0.000000 0.000001 5.553892 -20.331375 -7.222829 -4.077978 0.000000 -0.000001 4.427760 13.426055 2.788168 1.255164 0.000000 -0.363273 2.815359 5.173421 5.896346 1.756401 0.731534 0.096024 3.575179 -7.944982 -18.402205 0.725293 2.610320 -0.000000 0.000004 -9.657645 6.330986 -11.637326 5.118420 -0.000000 -0.000001 -4.545660 3.007347 2.149188 4.756898 -0.000000 -0.000000 -3.896531 -3.678411 18.297995 -0.721441 0.096024 3.575181 0.115976 14.491717 -4.804180 -2.610321 -0.000000 0.000002 27.957619 -16.849500 24.285443 -5.118418 -0.000000 -0.000001 -38.701611 37.179855 105.073868 -4.756900 -0.000001 -0.000001 10.785599 31.069052 -7.534534 1.816360 0.000001 -0.000002 -33.303613 -24.477617 14.766637 0.000000 0.000002 -7.638980 32.240542 11.790571 12.695046 0.000000 0.000001 -8.008598 1.270217 7.119748 17.540042 0.000000 -2.724539 -1.180635 -0.000001 -0.000001 -0.000001 -1.816360 0.000001 -0.000002 -33.175796 30.192076 13.698240 -0.000000 0.000001 -7.638982 23.938469 -24.989243 -19.433719 0.000000 0.000001 -8.008599 -9.248009 -9.031585 -26.995151 0.000001 -2.724539 -1.180633 -0.000002 -0.000000 -0.000003 
-0.672866 -0.377736 14.930073 17.777671 -2.163626 0.528785 0.000000 -0.000000 5.553895 -20.336560 -7.214622 -4.075358 0.000000 -0.000001 4.427763 13.418639 2.764099 1.260815 -0.000000 -0.363272 2.815361 5.240247 5.964391 1.764514 0.731534 0.096024 3.575179 -7.953581 -18.415269 0.711604 2.610319 -0.000001 -0.000001 -9.679005 6.377795 -11.651998 5.118421 -0.000001 -0.000001 -4.515127 2.998493 2.170282 4.756902 0.000001 0.000000 -3.867062 -3.669506 18.297679 -0.721443 0.096024 3.575181 0.109778 14.478744 -4.803409 -2.610320 -0.000000 -0.000000 27.942213 -16.889079 24.296933 -5.118419 -0.000001 0.000003 -38.659072 37.183577 105.077331 -4.756901 0.000001 0.000001 10.817995 31.016996 -7.486640 1.816360 0.000001 0.000001 -33.302995 -24.479080 14.830622 -0.000000 0.000001 -7.638978 32.255995 11.747568 12.642882 0.000000 0.000000 -8.008599 1.273912 7.122190 17.526633 0.000000 -2.724539 -1.180633 -0.000000 0.000000 0.000000 -1.816360 0.000001 0.000001 -33.160483 30.177852 13.687386 0.000001 0.000001 -7.638980 23.946821 -24.968679 -19.411818 -0.000001 0.000001 -8.008601 -9.265709 -9.069958 -27.005697 0.000000 -2.724540 -1.180633 0.000000 -0.000000 -0.000002 
-0.672244 -0.379411 14.931113 17.778651 -2.156566 0.543770 0.000000 -0.000001 5.553895 -20.339211 -7.218000 -4.082762 -0.000000 -0.000001 4.427762 13.404377 2.789155 1.275217 -0.000000 -0.363271 2.815358 5.300272 5.980657 1.776929 0.731533 0.096024 3.575177 -7.967674 -18.401865 0.673498 2.610320 -0.000000 0.000004 -9.743337 6.410020 -11.645350 5.118420 0.000001 -0.000001 -4.488469 3.019814 2.197182 4.756899 0.000001 0.000003 -3.838302 -3.679555 18.278802 -0.721442 0.096024 3.575179 0.112312 14.491266 -4.816256 -2.610320 -0.000000 0.000003 27.847764 -16.949690 24.273287 -5.118419 -0.000000 0.000005 -38.524418 37.129185 105.080077 -4.756904 0.000001 0.000004 10.890252 31.024447 -7.490633 1.816360 0.000000 0.000001 -33.302595 -24.471038 14.818401 -0.000000 0.000002 -7.638982 32.250982 11.744606 12.642339 0.000000 0.000001 -8.008599 1.291604 7.079758 17.524833 0.000000 -2.724540 -1.180634 0.000001 0.000001 -0.000000 -1.816360 -0.000000 0.000001 -33.140501 30.171797 13.677147 -0.000001 0.000002 -7.638982 23.933750 -24.958165 -19.435874 -0.000000 0.000001 -8.008599 -9.250050 -9.065524 -27.011653 0.000000 -2.724539 -1.180634 0.000000 -0.000000 -0.000002 
-0.672147 -0.381575 14.932430 17.769900 -2.157105 0.549477 -0.000000 -0.000001 5.553893 -20.333530 -7.210889 -4.067370 0.000000 -0.000001 4.427763 13.399177 2.791579 1.265971 0.000000 -0.363272 2.815362 5.338292 6.022622 1.768698 0.731534 0.096024 3.575180 -7.964503 -18.426156 0.668988 2.610319 -0.000001 -0.000003 -9.773290 6.477094 -11.680580 5.118421 -0.000000 0.000001 -4.457961 3.036469 2.219080 4.756899 -0.000001 -0.000000 -3.808472 -3.667375 18.290521 -0.721442 0.096024 3.575183 0.112685 14.492574 -4.845421 -2.610321 -0.000000 -0.000003 27.880627 -16.962257 24.292650 -5.118419 0.000000 0.000005 -38.560140 37.157575 105.109446 -4.756901 0.000001 0.000001 10.910598 31.006559 -7.492218 1.816360 0.000000 -0.000000 -33.279605 -24.458211 14.832208 -0.000000 0.000001 -7.638982 32.231072 11.726622 12.650263 0.000000 0.000001 -8.008599 1.310236 7.099859 17.509185 -0.000000 -2.724539 -1.180633 0.000002 0.000001 -0.000002 -1.816360 0.000000 -0.000001 -33.127449 30.164888 13.669411 0.000000 0.000002 -7.638981 23.942052 -24.944998 -19.447625 -0.000000 0.000001 -8.008599 -9.211980 -9.041683 -27.019269 -0.000000 -2.724539 -1.180633 0.000002 0.000000 -0.000003 
-0.671438 -0.382839 14.933132 17.772480 -2.147157 0.562355 0.000000 -0.000002 5.553892 -20.340174 -7.200926 -4.056047 -0.000000 -0.000000 4.427760 13.385749 2.818366 1.270840 0.000000 -0.363273 2.815360 5.390401 6.004280 1.768774 0.731534 0.096025 3.575180 -7.959283 -18.451445 0.658720 2.610319 -0.000000 -0.000001 -9.809834 6.522751 -11.712380 5.118419 0.000000 -0.000003 -4.417122 3.067997 2.249134 4.756899 -0.000000 -0.000000 -3.767966 -3.648021 18.332269 -0.721442 0.096025 3.575181 0.110275 14.478218 -4.860532 -2.610321 -0.000000 -0.000002 27.886711 -16.983643 24.297551 -5.118420 -0.000002 0.000003 -38.560987 37.164097 105.139602 -4.756901 0.000000 -0.000001 10.949482 31.007129 -7.523110 1.816360 -0.000000 -0.000003 -33.279841 -24.456213 14.812394 -0.000000 0.000002 -7.638981 32.226489 11.734478 12.635742 0.000000 0.000001 -8.008597 1.297958 7.099407 17.529689 -0.000000 -2.724540 -1.180634 -0.000000 0.000001 -0.000003 -1.816360 -0.000000 -0.000002 -33.110927 30.153793 13.659248 0.000001 0.000001 -7.638981 23.936693 -24.927264 -19.393028 0.000001 0.000001 -8.008599 -9.243232 -9.075822 -27.083276 0.000000 -2.724539 -1.180633 -0.000000 -0.000001 -0.000001 
